<svg xmlns="http://www.w3.org/2000/svg" version="1.1" xmlns:xlink="http://www.w3.org/1999/xlink" xmlns:svgjs="http://svgjs.dev/svgjs" width="25" height="24" viewBox="0 0 25 24" fill="none"><rect width="2000" height="1500" fill="#ffffff"></rect><g transform="matrix(0.75,0,0,0.75,249.090909090909,638.4928115543486)"><svg viewBox="0 0 396 59" data-background-color="#ffffff" preserveAspectRatio="xMidYMid meet" height="297" width="2000" xmlns="http://www.w3.org/2000/svg" xmlns:xlink="http://www.w3.org/1999/xlink"><g id="tight-bounds" transform="matrix(1,0,0,1,0.2400000000000091,0.0350128767381932)"><svg viewBox="0 0 395.52 58.92997424652362" height="58.92997424652362" width="395.52"><g><svg viewBox="0 0 395.52 58.92997424652362" height="58.92997424652362" width="395.52"><g><svg viewBox="0 0 462.5609336486208 68.91864863309351" height="58.92997424652362" width="395.52"><g><rect width="6.184233689331107" height="68.91864863309351" x="44.66760653172134" y="0" fill="#20b486" opacity="1" stroke-width="0" stroke="transparent" fill-opacity="1" class="rect-qz-0" data-fill-palette-color="primary" rx="1%" id="qz-0" data-palette-color="#20b486"></rect></g><g transform="matrix(1,0,0,1,67.0409336486208,0.1714394244604307)"><svg viewBox="0 0 395.52 68.57576978417265" height="68.57576978417265" width="395.52"><g id="textblocktransform"><svg viewBox="0 0 395.52 68.57576978417265" height="68.57576978417265" width="395.52" id="textblock"><g><svg viewBox="0 0 395.52 68.57576978417265" height="68.57576978417265" width="395.52"><g transform="matrix(1,0,0,1,0,0)"><svg width="395.52" viewBox="3.2499999999999996 -35.9 208.48 36.15" height="68.57576978417265" data-palette-color="#20b486"><path d="M7.8 0L3.85 0 3.85-25.35 7.8-25.35 7.8 0ZM3.98-31.48Q3.25-32.2 3.25-33.3 3.25-34.4 3.98-35.15 4.7-35.9 5.8-35.9 6.9-35.9 7.65-35.15 8.4-34.4 8.4-33.3 8.4-32.2 7.65-31.48 6.9-30.75 5.8-30.75 4.7-30.75 3.98-31.48ZM15.3-25.35L19.2-25.35 19.2-20.95Q21.45-25.7 27.2-25.7L27.2-25.7Q30.9-25.7 33.1-23.45 35.3-21.2 35.3-17.45L35.3-17.45 35.3 0 31.35 0 31.35-16.4Q31.35-19.2 29.92-20.68 28.5-22.15 26.2-22.15L26.2-22.15Q23.35-22.15 21.27-19.95 19.2-17.75 19.2-13.85L19.2-13.85 19.2 0 15.3 0 15.3-25.35ZM53.6 0L48.75 0 39.9-25.35 44-25.35 47.5-14.65 51.2-3.1Q51.65-5.25 54.95-14.65L54.95-14.65 58.55-25.35 62.65-25.35 53.6 0ZM70.09-14.3L83.69-14.3 83.69-15.3Q83.69-18.45 81.99-20.33 80.29-22.2 77.29-22.2L77.29-22.2Q74.44-22.2 72.44-20.15 70.44-18.1 70.09-14.3L70.09-14.3ZM86.04-5L86.04-5 86.04-1.3Q83.09 0.25 78.84 0.25L78.84 0.25Q73.09 0.25 69.57-3.28 66.04-6.8 66.04-12.6L66.04-12.6Q66.04-18.65 69.19-22.15 72.34-25.65 77.29-25.65L77.29-25.65Q82.04-25.65 84.84-22.6 87.64-19.55 87.64-13.95L87.64-13.95Q87.64-12.35 87.39-11L87.39-11 70.09-11Q70.54-7.25 72.94-5.25 75.34-3.25 79.24-3.25L79.24-3.25Q83.49-3.25 86.04-5ZM93.64-25.35L97.54-25.35 97.54-20.95Q99.79-25.7 105.54-25.7L105.54-25.7Q109.24-25.7 111.44-23.45 113.64-21.2 113.64-17.45L113.64-17.45 113.64 0 109.69 0 109.69-16.4Q109.69-19.2 108.27-20.68 106.84-22.15 104.54-22.15L104.54-22.15Q101.69-22.15 99.62-19.95 97.54-17.75 97.54-13.85L97.54-13.85 97.54 0 93.64 0 93.64-25.35ZM133.09-22.15L126.09-22.15 126.09-7.3Q126.09-3.25 129.89-3.25L129.89-3.25Q131.84-3.25 133.34-4.4L133.34-4.4 133.34-0.65Q131.69 0.25 129.64 0.25L129.64 0.25Q122.14 0.25 122.14-7.4L122.14-7.4 122.14-22.15 118.09-22.15 118.09-25.35 122.14-25.35 122.14-31.65 126.09-31.65 126.09-25.35 133.09-25.35 133.09-22.15ZM152.74-8.45L152.74-11.7 148.34-11.7Q145.13-11.7 143.53-10.45 141.94-9.2 141.94-7.3 141.94-5.4 143.19-4.23 144.44-3.05 146.84-3.05L146.84-3.05Q149.53-3.05 151.13-4.58 152.74-6.1 152.74-8.45L152.74-8.45ZM139.63-20.05L139.63-20.05 139.63-24Q142.49-25.75 147.13-25.75L147.13-25.75Q156.69-25.75 156.69-16.05L156.69-16.05 156.69 0 152.78 0 152.78-3Q150.84 0.25 145.69 0.25L145.69 0.25Q142.13 0.25 139.96-1.85 137.78-3.95 137.78-7.15L137.78-7.15Q137.78-10.8 140.56-12.83 143.34-14.85 148.13-14.85L148.13-14.85 152.74-14.85 152.74-16.15Q152.74-19.15 151.38-20.68 150.03-22.2 146.84-22.2L146.84-22.2Q142.78-22.2 139.63-20.05ZM167.83 0L163.88 0 163.88-25.35 167.83-25.35 167.83 0ZM164.01-31.48Q163.28-32.2 163.28-33.3 163.28-34.4 164.01-35.15 164.73-35.9 165.83-35.9 166.93-35.9 167.68-35.15 168.43-34.4 168.43-33.3 168.43-32.2 167.68-31.48 166.93-30.75 165.83-30.75 164.73-30.75 164.01-31.48ZM175.33-25.35L179.23-25.35 179.23-20.9Q181.23-25.6 186.13-25.6L186.13-25.6Q187.03-25.6 187.53-25.5L187.53-25.5 187.53-21.6Q186.48-21.95 185.38-21.95L185.38-21.95Q182.73-21.95 180.98-19.5 179.23-17.05 179.23-13.85L179.23-13.85 179.23 0 175.28 0 175.33-25.35ZM194.18-14.3L207.78-14.3 207.78-15.3Q207.78-18.45 206.08-20.33 204.38-22.2 201.38-22.2L201.38-22.2Q198.53-22.2 196.53-20.15 194.53-18.1 194.18-14.3L194.18-14.3ZM210.13-5L210.13-5 210.13-1.3Q207.18 0.25 202.93 0.25L202.93 0.25Q197.18 0.25 193.65-3.28 190.13-6.8 190.13-12.6L190.13-12.6Q190.13-18.65 193.28-22.15 196.43-25.65 201.38-25.65L201.38-25.65Q206.13-25.65 208.93-22.6 211.73-19.55 211.73-13.95L211.73-13.95Q211.73-12.35 211.48-11L211.48-11 194.18-11Q194.63-7.25 197.03-5.25 199.43-3.25 203.33-3.25L203.33-3.25Q207.58-3.25 210.13-5Z" opacity="1" transform="matrix(1,0,0,1,0,0)" fill="#20b486" class="wordmark-text-0" data-fill-palette-color="primary" id="text-0"></path></svg></g></svg></g></svg></g></svg></g><g transform="matrix(1,0,0,1,0,0.1714394244604307)"><svg viewBox="0 0 28.478513104153 68.57576978417265" height="68.57576978417265" width="28.478513104153"><g><svg xmlns="http://www.w3.org/2000/svg" xmlns:xlink="http://www.w3.org/1999/xlink" version="1.1" x="0" y="0" viewBox="28.62799537868545 3.9929999999999968 32.744004621314545 78.84700000000001" enable-background="new 0 0 90 90" xml:space="preserve" height="68.57576978417265" width="28.478513104153" class="icon-icon-0" data-fill-palette-color="accent" id="icon-0"><circle cx="40.259" cy="9.958" r="6.0" fill="#20b486" data-fill-palette-color="accent"></circle><path d="M44.612 38.595c0.479 0.849 0.953 1.429 1.928 1.898 0 0 10.338 3.258 12.865 4.375l1.967-3.296c0 0-10.875-4.825-11.409-5.064-0.091-0.046-0.563-0.303-0.78-0.794-0.628-1.415-3.873-13.487-4.467-14.997-0.506-1.281-1.76-3.095-4.351-3.745-2.955-0.748-5.931 1.105-6.649 4.064l-4.088 16.958c-0.367 1.368-0.992 5.064-1 6.624-0.004 1.438 2.59 33.847 2.578 38.104l2.819 0.013c0.009-2.228 1.755-18.114 2.538-27.875l5.269 6.369L48.62 82.84h3.197l-4.594-25.474-2.307-3.294-5.813-8.34 3.418-14.153C43.011 32.808 44.405 38.235 44.612 38.595z" fill="#20b486" data-fill-palette-color="accent"></path><g fill="#20b486" data-fill-palette-color="accent"><path d="M43.049 30.222c0.39 0.75 0.786 1.267 1.614 1.701 0 0 10.867 4.638 13.023 5.68l1.802-2.8c0 0-11.067-7.136-11.528-7.359-0.076-0.042-5.268-3.293-2.959-2.956 1.232 0.18-2.037-2.628-2.68-4.438l-1.788 3.545C40.923 24.677 42.88 29.905 43.049 30.222z" fill="#20b486" data-fill-palette-color="accent"></path></g></svg></g></svg></g></svg></g></svg></g><defs></defs></svg><rect width="395.52" height="58.92997424652362" fill="none" stroke="none" visibility="hidden"></rect></g></svg></g></svg>